<svg xmlns="http://www.w3.org/2000/svg" viewBox="0 0 32 32">
  <path fill="#25D366" d="M16 .5C7.16.5.5 7.16.5 16c0 2.8.73 5.44 2 7.76L.5 31.5l7.9-2.07A15.47 15.47 0 0 0 16 31.5c8.84 0 15.5-6.66 15.5-15.5S24.84.5 16 .5z"/>
  <path fill="#FFF" d="M23.7 20.5c-.37.94-2.13 1.78-2.93 1.84-.74.06-1.69.09-2.73-.17-4.65-1.17-7.66-5.41-7.9-5.68-.24-.27-1.88-2.5-1.88-4.77s1.19-3.4 1.61-3.87c.42-.46.93-.58 1.24-.58.31 0 .62.01.89.01.28 0 .67-.11 1.05.79.38.91 1.29 3.15 1.4 3.38.11.23.18.5.04.77-.14.27-.21.45-.41.69-.21.25-.43.56-.61.75-.2.2-.4.42-.17.83.23.4 1.02 1.68 2.19 2.72 1.5 1.34 2.77 1.76 3.18 1.95.41.19.65.17.89-.1.24-.28 1.03-1.2 1.3-1.62.27-.42.55-.36.92-.22.37.14 2.37 1.12 2.78 1.32.41.19.69.28.79.43.1.15.1.88-.27 1.82z"/>
</svg>
